<mxfile host="app.diagrams.net" modified="2023-05-01T18:36:07.342Z" agent="Mozilla/5.0 (Windows NT 10.0; Win64; x64) AppleWebKit/537.36 (KHTML, like Gecko) Chrome/112.0.0.0 Safari/537.36" etag="rczYnXurwocPetZRTGwG" version="21.2.3" type="github">
  <diagram name="Page-1" id="2cc2dc42-3aac-f2a9-1cec-7a8b7cbee084">
    <mxGraphModel dx="1436" dy="874" grid="1" gridSize="10" guides="1" tooltips="1" connect="1" arrows="1" fold="1" page="1" pageScale="1" pageWidth="1100" pageHeight="850" background="none" math="0" shadow="0">
      <root>
        <mxCell id="0" />
        <mxCell id="1" parent="0" />
        <mxCell id="7026571954dc6520-1" value="" style="strokeWidth=1;shadow=0;dashed=0;align=center;html=1;shape=mxgraph.mockup.containers.browserWindow;rSize=0;strokeColor=#666666;mainText=,;recursiveResize=0;rounded=0;labelBackgroundColor=none;fontFamily=Verdana;fontSize=12" parent="1" vertex="1">
          <mxGeometry x="30" y="20" width="1050" height="820" as="geometry" />
        </mxCell>
        <mxCell id="7026571954dc6520-2" value="Page 1" style="strokeWidth=1;shadow=0;dashed=0;align=center;html=1;shape=mxgraph.mockup.containers.anchor;fontSize=17;fontColor=#666666;align=left;" parent="7026571954dc6520-1" vertex="1">
          <mxGeometry x="60" y="12" width="110" height="26" as="geometry" />
        </mxCell>
        <mxCell id="7026571954dc6520-3" value="https://www.vistasmartcity.com/events" style="strokeWidth=1;shadow=0;dashed=0;align=center;html=1;shape=mxgraph.mockup.containers.anchor;rSize=0;fontSize=17;fontColor=#666666;align=left;" parent="7026571954dc6520-1" vertex="1">
          <mxGeometry x="130" y="60" width="250" height="26" as="geometry" />
        </mxCell>
        <mxCell id="7026571954dc6520-6" value="Organizations in your region" style="text;html=1;points=[];align=left;verticalAlign=top;spacingTop=-4;fontSize=15;fontFamily=Verdana" parent="7026571954dc6520-1" vertex="1">
          <mxGeometry x="4" y="152" width="170" height="30" as="geometry" />
        </mxCell>
        <mxCell id="7026571954dc6520-12" value="Search" style="text;html=1;points=[];align=left;verticalAlign=top;spacingTop=-4;fontSize=15;fontFamily=Verdana" parent="7026571954dc6520-1" vertex="1">
          <mxGeometry x="741" y="159" width="170" height="30" as="geometry" />
        </mxCell>
        <mxCell id="7026571954dc6520-14" value="Search" style="strokeWidth=1;shadow=0;dashed=0;align=center;html=1;shape=mxgraph.mockup.forms.searchBox;strokeColor=#999999;mainText=;strokeColor2=#008cff;fontColor=#666666;fontSize=17;align=left;spacingLeft=3;rounded=0;labelBackgroundColor=none;" parent="7026571954dc6520-1" vertex="1">
          <mxGeometry x="741" y="189" width="220" height="30" as="geometry" />
        </mxCell>
        <mxCell id="7026571954dc6520-15" value="" style="verticalLabelPosition=bottom;shadow=0;dashed=0;align=center;html=1;verticalAlign=top;strokeWidth=1;shape=mxgraph.mockup.markup.line;strokeColor=#999999;rounded=0;labelBackgroundColor=none;fillColor=#ffffff;fontFamily=Verdana;fontSize=12;fontColor=#000000;" parent="7026571954dc6520-1" vertex="1">
          <mxGeometry y="310" width="1050" height="20" as="geometry" />
        </mxCell>
        <mxCell id="7026571954dc6520-16" value="Joined events" style="text;html=1;points=[];align=left;verticalAlign=top;spacingTop=-4;fontSize=15;fontFamily=Verdana" parent="7026571954dc6520-1" vertex="1">
          <mxGeometry x="20" y="330" width="170" height="30" as="geometry" />
        </mxCell>
        <mxCell id="wlsTM-EWgnDsblmS1kuD-19" value="" style="rounded=1;whiteSpace=wrap;html=1;" parent="7026571954dc6520-1" vertex="1">
          <mxGeometry x="20" y="370" width="130" height="190" as="geometry" />
        </mxCell>
        <mxCell id="wlsTM-EWgnDsblmS1kuD-20" value="" style="aspect=fixed;html=1;points=[];align=center;image;fontSize=12;image=img/lib/azure2/general/Image.svg;" parent="7026571954dc6520-1" vertex="1">
          <mxGeometry x="30" y="380" width="46.55" height="32" as="geometry" />
        </mxCell>
        <mxCell id="wlsTM-EWgnDsblmS1kuD-21" value="Event name" style="text;html=1;align=center;verticalAlign=middle;resizable=0;points=[];autosize=1;strokeColor=none;fillColor=none;" parent="7026571954dc6520-1" vertex="1">
          <mxGeometry x="70" y="370" width="90" height="30" as="geometry" />
        </mxCell>
        <mxCell id="wlsTM-EWgnDsblmS1kuD-22" value="Location" style="text;html=1;align=center;verticalAlign=middle;resizable=0;points=[];autosize=1;strokeColor=none;fillColor=none;" parent="7026571954dc6520-1" vertex="1">
          <mxGeometry x="70" y="380" width="70" height="30" as="geometry" />
        </mxCell>
        <mxCell id="wlsTM-EWgnDsblmS1kuD-23" value="Date" style="text;html=1;align=center;verticalAlign=middle;resizable=0;points=[];autosize=1;strokeColor=none;fillColor=none;" parent="7026571954dc6520-1" vertex="1">
          <mxGeometry x="70" y="390" width="50" height="30" as="geometry" />
        </mxCell>
        <mxCell id="wlsTM-EWgnDsblmS1kuD-24" value="" style="rounded=0;whiteSpace=wrap;html=1;" parent="7026571954dc6520-1" vertex="1">
          <mxGeometry x="30" y="415" width="110" height="30" as="geometry" />
        </mxCell>
        <mxCell id="wlsTM-EWgnDsblmS1kuD-25" value="Event short&amp;nbsp;&lt;br&gt;description" style="text;html=1;align=center;verticalAlign=middle;resizable=0;points=[];autosize=1;strokeColor=none;fillColor=none;" parent="7026571954dc6520-1" vertex="1">
          <mxGeometry x="40" y="410" width="90" height="40" as="geometry" />
        </mxCell>
        <mxCell id="HxkZM5L2tCHpHcFzdb74-59" value="" style="rounded=1;whiteSpace=wrap;html=1;" parent="7026571954dc6520-1" vertex="1">
          <mxGeometry x="220" y="370" width="130" height="190" as="geometry" />
        </mxCell>
        <mxCell id="HxkZM5L2tCHpHcFzdb74-60" value="" style="aspect=fixed;html=1;points=[];align=center;image;fontSize=12;image=img/lib/azure2/general/Image.svg;" parent="7026571954dc6520-1" vertex="1">
          <mxGeometry x="230" y="380" width="46.55" height="32" as="geometry" />
        </mxCell>
        <mxCell id="HxkZM5L2tCHpHcFzdb74-61" value="Event name" style="text;html=1;align=center;verticalAlign=middle;resizable=0;points=[];autosize=1;strokeColor=none;fillColor=none;" parent="7026571954dc6520-1" vertex="1">
          <mxGeometry x="270" y="370" width="90" height="30" as="geometry" />
        </mxCell>
        <mxCell id="HxkZM5L2tCHpHcFzdb74-62" value="Location" style="text;html=1;align=center;verticalAlign=middle;resizable=0;points=[];autosize=1;strokeColor=none;fillColor=none;" parent="7026571954dc6520-1" vertex="1">
          <mxGeometry x="270" y="380" width="70" height="30" as="geometry" />
        </mxCell>
        <mxCell id="HxkZM5L2tCHpHcFzdb74-63" value="Date" style="text;html=1;align=center;verticalAlign=middle;resizable=0;points=[];autosize=1;strokeColor=none;fillColor=none;" parent="7026571954dc6520-1" vertex="1">
          <mxGeometry x="270" y="390" width="50" height="30" as="geometry" />
        </mxCell>
        <mxCell id="HxkZM5L2tCHpHcFzdb74-64" value="" style="rounded=0;whiteSpace=wrap;html=1;" parent="7026571954dc6520-1" vertex="1">
          <mxGeometry x="230" y="415" width="110" height="30" as="geometry" />
        </mxCell>
        <mxCell id="HxkZM5L2tCHpHcFzdb74-65" value="Event short&amp;nbsp;&lt;br&gt;description" style="text;html=1;align=center;verticalAlign=middle;resizable=0;points=[];autosize=1;strokeColor=none;fillColor=none;" parent="7026571954dc6520-1" vertex="1">
          <mxGeometry x="240" y="410" width="90" height="40" as="geometry" />
        </mxCell>
        <mxCell id="HxkZM5L2tCHpHcFzdb74-72" value="" style="rounded=1;whiteSpace=wrap;html=1;" parent="7026571954dc6520-1" vertex="1">
          <mxGeometry x="416.55" y="370" width="130" height="190" as="geometry" />
        </mxCell>
        <mxCell id="HxkZM5L2tCHpHcFzdb74-73" value="" style="aspect=fixed;html=1;points=[];align=center;image;fontSize=12;image=img/lib/azure2/general/Image.svg;" parent="7026571954dc6520-1" vertex="1">
          <mxGeometry x="426.55" y="380" width="46.55" height="32" as="geometry" />
        </mxCell>
        <mxCell id="HxkZM5L2tCHpHcFzdb74-74" value="Event name" style="text;html=1;align=center;verticalAlign=middle;resizable=0;points=[];autosize=1;strokeColor=none;fillColor=none;" parent="7026571954dc6520-1" vertex="1">
          <mxGeometry x="466.55" y="370" width="90" height="30" as="geometry" />
        </mxCell>
        <mxCell id="HxkZM5L2tCHpHcFzdb74-75" value="Location" style="text;html=1;align=center;verticalAlign=middle;resizable=0;points=[];autosize=1;strokeColor=none;fillColor=none;" parent="7026571954dc6520-1" vertex="1">
          <mxGeometry x="466.55" y="380" width="70" height="30" as="geometry" />
        </mxCell>
        <mxCell id="HxkZM5L2tCHpHcFzdb74-76" value="Date" style="text;html=1;align=center;verticalAlign=middle;resizable=0;points=[];autosize=1;strokeColor=none;fillColor=none;" parent="7026571954dc6520-1" vertex="1">
          <mxGeometry x="466.55" y="390" width="50" height="30" as="geometry" />
        </mxCell>
        <mxCell id="HxkZM5L2tCHpHcFzdb74-77" value="" style="rounded=0;whiteSpace=wrap;html=1;" parent="7026571954dc6520-1" vertex="1">
          <mxGeometry x="426.55" y="415" width="110" height="30" as="geometry" />
        </mxCell>
        <mxCell id="HxkZM5L2tCHpHcFzdb74-78" value="Event short&amp;nbsp;&lt;br&gt;description" style="text;html=1;align=center;verticalAlign=middle;resizable=0;points=[];autosize=1;strokeColor=none;fillColor=none;" parent="7026571954dc6520-1" vertex="1">
          <mxGeometry x="436.55" y="410" width="90" height="40" as="geometry" />
        </mxCell>
        <mxCell id="HxkZM5L2tCHpHcFzdb74-85" value="" style="rounded=1;whiteSpace=wrap;html=1;" parent="7026571954dc6520-1" vertex="1">
          <mxGeometry x="610" y="370" width="130" height="190" as="geometry" />
        </mxCell>
        <mxCell id="HxkZM5L2tCHpHcFzdb74-86" value="" style="aspect=fixed;html=1;points=[];align=center;image;fontSize=12;image=img/lib/azure2/general/Image.svg;" parent="7026571954dc6520-1" vertex="1">
          <mxGeometry x="620" y="380" width="46.55" height="32" as="geometry" />
        </mxCell>
        <mxCell id="HxkZM5L2tCHpHcFzdb74-87" value="Event name" style="text;html=1;align=center;verticalAlign=middle;resizable=0;points=[];autosize=1;strokeColor=none;fillColor=none;" parent="7026571954dc6520-1" vertex="1">
          <mxGeometry x="660" y="370" width="90" height="30" as="geometry" />
        </mxCell>
        <mxCell id="HxkZM5L2tCHpHcFzdb74-88" value="Location" style="text;html=1;align=center;verticalAlign=middle;resizable=0;points=[];autosize=1;strokeColor=none;fillColor=none;" parent="7026571954dc6520-1" vertex="1">
          <mxGeometry x="660" y="380" width="70" height="30" as="geometry" />
        </mxCell>
        <mxCell id="HxkZM5L2tCHpHcFzdb74-89" value="Date" style="text;html=1;align=center;verticalAlign=middle;resizable=0;points=[];autosize=1;strokeColor=none;fillColor=none;" parent="7026571954dc6520-1" vertex="1">
          <mxGeometry x="660" y="390" width="50" height="30" as="geometry" />
        </mxCell>
        <mxCell id="HxkZM5L2tCHpHcFzdb74-90" value="" style="rounded=0;whiteSpace=wrap;html=1;" parent="7026571954dc6520-1" vertex="1">
          <mxGeometry x="620" y="415" width="110" height="30" as="geometry" />
        </mxCell>
        <mxCell id="HxkZM5L2tCHpHcFzdb74-91" value="Event short&amp;nbsp;&lt;br&gt;description" style="text;html=1;align=center;verticalAlign=middle;resizable=0;points=[];autosize=1;strokeColor=none;fillColor=none;" parent="7026571954dc6520-1" vertex="1">
          <mxGeometry x="630" y="410" width="90" height="40" as="geometry" />
        </mxCell>
        <mxCell id="HxkZM5L2tCHpHcFzdb74-98" value="" style="rounded=1;whiteSpace=wrap;html=1;" parent="7026571954dc6520-1" vertex="1">
          <mxGeometry x="800" y="370" width="130" height="190" as="geometry" />
        </mxCell>
        <mxCell id="HxkZM5L2tCHpHcFzdb74-99" value="" style="aspect=fixed;html=1;points=[];align=center;image;fontSize=12;image=img/lib/azure2/general/Image.svg;" parent="7026571954dc6520-1" vertex="1">
          <mxGeometry x="810" y="380" width="46.55" height="32" as="geometry" />
        </mxCell>
        <mxCell id="HxkZM5L2tCHpHcFzdb74-100" value="Event name" style="text;html=1;align=center;verticalAlign=middle;resizable=0;points=[];autosize=1;strokeColor=none;fillColor=none;" parent="7026571954dc6520-1" vertex="1">
          <mxGeometry x="850" y="370" width="90" height="30" as="geometry" />
        </mxCell>
        <mxCell id="HxkZM5L2tCHpHcFzdb74-101" value="Location" style="text;html=1;align=center;verticalAlign=middle;resizable=0;points=[];autosize=1;strokeColor=none;fillColor=none;" parent="7026571954dc6520-1" vertex="1">
          <mxGeometry x="850" y="380" width="70" height="30" as="geometry" />
        </mxCell>
        <mxCell id="HxkZM5L2tCHpHcFzdb74-102" value="Date" style="text;html=1;align=center;verticalAlign=middle;resizable=0;points=[];autosize=1;strokeColor=none;fillColor=none;" parent="7026571954dc6520-1" vertex="1">
          <mxGeometry x="850" y="390" width="50" height="30" as="geometry" />
        </mxCell>
        <mxCell id="HxkZM5L2tCHpHcFzdb74-103" value="" style="rounded=0;whiteSpace=wrap;html=1;" parent="7026571954dc6520-1" vertex="1">
          <mxGeometry x="810" y="415" width="110" height="30" as="geometry" />
        </mxCell>
        <mxCell id="HxkZM5L2tCHpHcFzdb74-104" value="Event short&amp;nbsp;&lt;br&gt;description" style="text;html=1;align=center;verticalAlign=middle;resizable=0;points=[];autosize=1;strokeColor=none;fillColor=none;" parent="7026571954dc6520-1" vertex="1">
          <mxGeometry x="820" y="410" width="90" height="40" as="geometry" />
        </mxCell>
        <mxCell id="pJYsg66AnEIzZijgWhf2-1" value="" style="rounded=1;whiteSpace=wrap;html=1;" vertex="1" parent="7026571954dc6520-1">
          <mxGeometry x="20" y="182" width="150" height="128" as="geometry" />
        </mxCell>
        <object placeholders="1" c4Name="Organizer name" c4Type="Organization" c4Description="Description of organization objective." label="&lt;font style=&quot;font-size: 16px&quot;&gt;&lt;b&gt;%c4Name%&lt;/b&gt;&lt;/font&gt;&lt;div&gt;[%c4Type%]&lt;/div&gt;&lt;br&gt;&lt;div&gt;&lt;font style=&quot;font-size: 11px&quot;&gt;&lt;font color=&quot;#cccccc&quot;&gt;%c4Description%&lt;/font&gt;&lt;/div&gt;" id="pJYsg66AnEIzZijgWhf2-2">
          <mxCell style="html=1;fontSize=11;dashed=0;whiteSpace=wrap;fillColor=#6C6477;strokeColor=#4D4D4D;fontColor=#ffffff;shape=mxgraph.c4.person2;align=center;metaEdit=1;points=[[0.5,0,0],[1,0.5,0],[1,0.75,0],[0.75,1,0],[0.5,1,0],[0.25,1,0],[0,0.75,0],[0,0.5,0]];resizable=1;rotation=0;" vertex="1" parent="7026571954dc6520-1">
            <mxGeometry x="25" y="186" width="140" height="120" as="geometry" />
          </mxCell>
        </object>
        <mxCell id="pJYsg66AnEIzZijgWhf2-4" value="" style="rounded=1;whiteSpace=wrap;html=1;" vertex="1" parent="7026571954dc6520-1">
          <mxGeometry x="232" y="182" width="150" height="128" as="geometry" />
        </mxCell>
        <object placeholders="1" c4Name="Organizer name" c4Type="Organization" c4Description="Description of organization objective." label="&lt;font style=&quot;font-size: 16px&quot;&gt;&lt;b&gt;%c4Name%&lt;/b&gt;&lt;/font&gt;&lt;div&gt;[%c4Type%]&lt;/div&gt;&lt;br&gt;&lt;div&gt;&lt;font style=&quot;font-size: 11px&quot;&gt;&lt;font color=&quot;#cccccc&quot;&gt;%c4Description%&lt;/font&gt;&lt;/div&gt;" id="pJYsg66AnEIzZijgWhf2-5">
          <mxCell style="html=1;fontSize=11;dashed=0;whiteSpace=wrap;fillColor=#6C6477;strokeColor=#4D4D4D;fontColor=#ffffff;shape=mxgraph.c4.person2;align=center;metaEdit=1;points=[[0.5,0,0],[1,0.5,0],[1,0.75,0],[0.75,1,0],[0.5,1,0],[0.25,1,0],[0,0.75,0],[0,0.5,0]];resizable=1;rotation=0;" vertex="1" parent="7026571954dc6520-1">
            <mxGeometry x="237" y="186" width="140" height="120" as="geometry" />
          </mxCell>
        </object>
        <mxCell id="pJYsg66AnEIzZijgWhf2-6" value="" style="rounded=1;whiteSpace=wrap;html=1;" vertex="1" parent="7026571954dc6520-1">
          <mxGeometry x="450" y="182" width="150" height="128" as="geometry" />
        </mxCell>
        <object placeholders="1" c4Name="Organizer name" c4Type="Organization" c4Description="Description of organization objective." label="&lt;font style=&quot;font-size: 16px&quot;&gt;&lt;b&gt;%c4Name%&lt;/b&gt;&lt;/font&gt;&lt;div&gt;[%c4Type%]&lt;/div&gt;&lt;br&gt;&lt;div&gt;&lt;font style=&quot;font-size: 11px&quot;&gt;&lt;font color=&quot;#cccccc&quot;&gt;%c4Description%&lt;/font&gt;&lt;/div&gt;" id="pJYsg66AnEIzZijgWhf2-7">
          <mxCell style="html=1;fontSize=11;dashed=0;whiteSpace=wrap;fillColor=#6C6477;strokeColor=#4D4D4D;fontColor=#ffffff;shape=mxgraph.c4.person2;align=center;metaEdit=1;points=[[0.5,0,0],[1,0.5,0],[1,0.75,0],[0.75,1,0],[0.5,1,0],[0.25,1,0],[0,0.75,0],[0,0.5,0]];resizable=1;rotation=0;" vertex="1" parent="7026571954dc6520-1">
            <mxGeometry x="455" y="186" width="140" height="120" as="geometry" />
          </mxCell>
        </object>
        <mxCell id="pJYsg66AnEIzZijgWhf2-8" value="" style="ellipse;whiteSpace=wrap;html=1;aspect=fixed;fillColor=#000000;" vertex="1" parent="7026571954dc6520-1">
          <mxGeometry x="620" y="240" width="10" height="10" as="geometry" />
        </mxCell>
        <mxCell id="pJYsg66AnEIzZijgWhf2-9" value="" style="ellipse;whiteSpace=wrap;html=1;aspect=fixed;fillColor=#000000;" vertex="1" parent="7026571954dc6520-1">
          <mxGeometry x="638.55" y="240" width="10" height="10" as="geometry" />
        </mxCell>
        <mxCell id="pJYsg66AnEIzZijgWhf2-10" value="" style="ellipse;whiteSpace=wrap;html=1;aspect=fixed;fillColor=#000000;" vertex="1" parent="7026571954dc6520-1">
          <mxGeometry x="658.55" y="240" width="10" height="10" as="geometry" />
        </mxCell>
        <mxCell id="SwkVHxH7qf517YYLQ6Va-1" value="" style="group" parent="1" connectable="0" vertex="1">
          <mxGeometry x="71" y="478" width="94.79692307692308" height="90" as="geometry" />
        </mxCell>
        <mxCell id="SwkVHxH7qf517YYLQ6Va-2" value="" style="rounded=1;whiteSpace=wrap;html=1;" parent="SwkVHxH7qf517YYLQ6Va-1" vertex="1">
          <mxGeometry y="12.516556291390728" width="88" height="77.48344370860927" as="geometry" />
        </mxCell>
        <mxCell id="SwkVHxH7qf517YYLQ6Va-8" value="" style="rounded=1;whiteSpace=wrap;html=1;fillColor=none;" parent="SwkVHxH7qf517YYLQ6Va-1" vertex="1">
          <mxGeometry y="0.5960264900662251" width="88" height="89.40397350993376" as="geometry" />
        </mxCell>
        <mxCell id="SwkVHxH7qf517YYLQ6Va-9" value="Tree planting" style="text;html=1;align=center;verticalAlign=middle;resizable=0;points=[];autosize=1;strokeColor=none;fillColor=none;" parent="SwkVHxH7qf517YYLQ6Va-1" vertex="1">
          <mxGeometry x="-0.2030769230769227" y="-7.727272727272727" width="90" height="30" as="geometry" />
        </mxCell>
        <mxCell id="HxkZM5L2tCHpHcFzdb74-58" value="" style="shape=image;html=1;verticalAlign=top;verticalLabelPosition=bottom;labelBackgroundColor=#ffffff;imageAspect=0;aspect=fixed;image=https://cdn0.iconfinder.com/data/icons/phosphor-regular-vol-4/256/tree-128.png" parent="SwkVHxH7qf517YYLQ6Va-1" vertex="1">
          <mxGeometry x="10" y="12.519999999999982" width="70" height="70" as="geometry" />
        </mxCell>
        <mxCell id="SwkVHxH7qf517YYLQ6Va-86" value="&lt;font face=&quot;Times New Roman&quot;&gt;Start date&lt;/font&gt;" style="rounded=0;arcSize=9;fillColor=none;align=left;spacingLeft=5;strokeColor=#B1B4B8;html=1;strokeWidth=1;fontColor=#596780;fontSize=12;hachureGap=4;pointerEvents=0;fontFamily=Architects Daughter;fontSource=https%3A%2F%2Ffonts.googleapis.com%2Fcss%3Ffamily%3DArchitects%2BDaughter;" parent="1" vertex="1">
          <mxGeometry x="771" y="249" width="109" height="33" as="geometry" />
        </mxCell>
        <mxCell id="SwkVHxH7qf517YYLQ6Va-87" value="" style="shape=mxgraph.gmdl.calendar;fillColor=#5A6881;strokeColor=none;sketch=0;hachureGap=4;pointerEvents=0;fontFamily=Architects Daughter;fontSource=https%3A%2F%2Ffonts.googleapis.com%2Fcss%3Ffamily%3DArchitects%2BDaughter;fontSize=20;" parent="SwkVHxH7qf517YYLQ6Va-86" vertex="1">
          <mxGeometry x="1" y="0.5" width="18" height="18" relative="1" as="geometry">
            <mxPoint x="-29" y="-9" as="offset" />
          </mxGeometry>
        </mxCell>
        <mxCell id="SwkVHxH7qf517YYLQ6Va-88" value="&lt;font face=&quot;Times New Roman&quot;&gt;End date&lt;/font&gt;" style="rounded=0;arcSize=9;fillColor=none;align=left;spacingLeft=5;strokeColor=#B1B4B8;html=1;strokeWidth=1;fontColor=#596780;fontSize=12;hachureGap=4;pointerEvents=0;fontFamily=Architects Daughter;fontSource=https%3A%2F%2Ffonts.googleapis.com%2Fcss%3Ffamily%3DArchitects%2BDaughter;" parent="1" vertex="1">
          <mxGeometry x="883" y="249" width="109" height="33" as="geometry" />
        </mxCell>
        <mxCell id="SwkVHxH7qf517YYLQ6Va-89" value="" style="shape=mxgraph.gmdl.calendar;fillColor=#5A6881;strokeColor=none;sketch=0;hachureGap=4;pointerEvents=0;fontFamily=Architects Daughter;fontSource=https%3A%2F%2Ffonts.googleapis.com%2Fcss%3Ffamily%3DArchitects%2BDaughter;fontSize=20;" parent="SwkVHxH7qf517YYLQ6Va-88" vertex="1">
          <mxGeometry x="1" y="0.5" width="18" height="18" relative="1" as="geometry">
            <mxPoint x="-29" y="-9" as="offset" />
          </mxGeometry>
        </mxCell>
        <mxCell id="SwkVHxH7qf517YYLQ6Va-90" value="Approximate Location" style="rounded=0;whiteSpace=wrap;html=1;align=left;" parent="1" vertex="1">
          <mxGeometry x="770" y="290" width="220" height="30" as="geometry" />
        </mxCell>
        <mxCell id="SwkVHxH7qf517YYLQ6Va-91" value="" style="html=1;verticalLabelPosition=bottom;align=center;labelBackgroundColor=#ffffff;verticalAlign=top;strokeWidth=2;strokeColor=#0080F0;shadow=0;dashed=0;shape=mxgraph.ios7.icons.location;" parent="1" vertex="1">
          <mxGeometry x="964.5" y="294" width="18.5" height="20" as="geometry" />
        </mxCell>
        <mxCell id="HxkZM5L2tCHpHcFzdb74-1" value="" style="shape=image;html=1;verticalAlign=top;verticalLabelPosition=bottom;labelBackgroundColor=#ffffff;imageAspect=0;aspect=fixed;image=https://cdn4.iconfinder.com/data/icons/evil-icons-user-interface/64/menu-128.png" parent="1" vertex="1">
          <mxGeometry x="30" y="130" width="40" height="40" as="geometry" />
        </mxCell>
        <mxCell id="HxkZM5L2tCHpHcFzdb74-2" value="" style="sketch=0;pointerEvents=1;shadow=0;dashed=0;html=1;strokeColor=none;fillColor=#505050;labelPosition=center;verticalLabelPosition=bottom;verticalAlign=top;outlineConnect=0;align=center;shape=mxgraph.office.concepts.home;" parent="1" vertex="1">
          <mxGeometry x="70" y="135" width="40" height="30" as="geometry" />
        </mxCell>
        <mxCell id="HxkZM5L2tCHpHcFzdb74-3" value="" style="swimlane;startSize=0;" parent="1" vertex="1">
          <mxGeometry x="30" y="130" width="40" height="40" as="geometry" />
        </mxCell>
        <mxCell id="HxkZM5L2tCHpHcFzdb74-4" value="" style="swimlane;startSize=0;" parent="1" vertex="1">
          <mxGeometry x="70" y="130" width="390" height="40" as="geometry" />
        </mxCell>
        <mxCell id="HxkZM5L2tCHpHcFzdb74-5" value="&lt;font style=&quot;font-size: 24px;&quot;&gt;VOLUNTEERING EVENTS&lt;/font&gt;" style="text;html=1;align=center;verticalAlign=middle;resizable=0;points=[];autosize=1;strokeColor=none;fillColor=none;" parent="HxkZM5L2tCHpHcFzdb74-4" vertex="1">
          <mxGeometry x="80" width="320" height="40" as="geometry" />
        </mxCell>
        <mxCell id="HxkZM5L2tCHpHcFzdb74-6" value="&lt;font style=&quot;font-size: 24px;&quot; color=&quot;#ff0055&quot;&gt;&amp;gt;&lt;/font&gt;" style="text;html=1;align=center;verticalAlign=middle;resizable=0;points=[];autosize=1;strokeColor=none;fillColor=none;" parent="HxkZM5L2tCHpHcFzdb74-4" vertex="1">
          <mxGeometry x="40" width="40" height="40" as="geometry" />
        </mxCell>
        <mxCell id="HxkZM5L2tCHpHcFzdb74-7" value="" style="swimlane;startSize=0;" parent="1" vertex="1">
          <mxGeometry x="750" y="130" width="330" height="40" as="geometry">
            <mxRectangle x="750" y="130" width="50" height="40" as="alternateBounds" />
          </mxGeometry>
        </mxCell>
        <mxCell id="HxkZM5L2tCHpHcFzdb74-8" value="&lt;font style=&quot;font-size: 24px;&quot;&gt;ACCOUNT&lt;/font&gt;" style="text;html=1;align=center;verticalAlign=middle;resizable=0;points=[];autosize=1;strokeColor=none;fillColor=none;" parent="HxkZM5L2tCHpHcFzdb74-7" vertex="1">
          <mxGeometry x="8" width="140" height="40" as="geometry" />
        </mxCell>
        <mxCell id="HxkZM5L2tCHpHcFzdb74-9" value="" style="swimlane;startSize=0;" parent="1" vertex="1">
          <mxGeometry x="70" y="130" width="40" height="40" as="geometry" />
        </mxCell>
        <mxCell id="HxkZM5L2tCHpHcFzdb74-10" value="" style="swimlane;startSize=0;" parent="1" vertex="1">
          <mxGeometry x="460" y="130" width="290" height="40" as="geometry" />
        </mxCell>
        <mxCell id="HxkZM5L2tCHpHcFzdb74-11" value="&lt;span style=&quot;font-size: 24px;&quot;&gt;ORGANIZATIONS&lt;/span&gt;" style="text;html=1;align=center;verticalAlign=middle;resizable=0;points=[];autosize=1;strokeColor=none;fillColor=none;" parent="HxkZM5L2tCHpHcFzdb74-10" vertex="1">
          <mxGeometry x="33" width="220" height="40" as="geometry" />
        </mxCell>
        <mxCell id="HxkZM5L2tCHpHcFzdb74-66" value="" style="group" parent="1" connectable="0" vertex="1">
          <mxGeometry x="271" y="478" width="94.79692307692308" height="90" as="geometry" />
        </mxCell>
        <mxCell id="HxkZM5L2tCHpHcFzdb74-67" value="" style="rounded=1;whiteSpace=wrap;html=1;" parent="HxkZM5L2tCHpHcFzdb74-66" vertex="1">
          <mxGeometry y="12.516556291390728" width="88" height="77.48344370860927" as="geometry" />
        </mxCell>
        <mxCell id="HxkZM5L2tCHpHcFzdb74-68" value="" style="rounded=1;whiteSpace=wrap;html=1;fillColor=none;" parent="HxkZM5L2tCHpHcFzdb74-66" vertex="1">
          <mxGeometry y="0.5960264900662251" width="88" height="89.40397350993376" as="geometry" />
        </mxCell>
        <mxCell id="HxkZM5L2tCHpHcFzdb74-69" value="Cleaning" style="text;html=1;align=center;verticalAlign=middle;resizable=0;points=[];autosize=1;strokeColor=none;fillColor=none;" parent="HxkZM5L2tCHpHcFzdb74-66" vertex="1">
          <mxGeometry x="9.796923076923077" y="-7.727272727272727" width="70" height="30" as="geometry" />
        </mxCell>
        <mxCell id="HxkZM5L2tCHpHcFzdb74-71" value="" style="shape=image;html=1;verticalAlign=top;verticalLabelPosition=bottom;labelBackgroundColor=#ffffff;imageAspect=0;aspect=fixed;image=https://cdn4.iconfinder.com/data/icons/essential-app-2/16/trash-can-bin-recycle-128.png" parent="HxkZM5L2tCHpHcFzdb74-66" vertex="1">
          <mxGeometry x="9" y="16.25999999999999" width="70" height="70" as="geometry" />
        </mxCell>
        <mxCell id="HxkZM5L2tCHpHcFzdb74-79" value="" style="group" parent="1" connectable="0" vertex="1">
          <mxGeometry x="467.55" y="478" width="94.79692307692308" height="90" as="geometry" />
        </mxCell>
        <mxCell id="HxkZM5L2tCHpHcFzdb74-80" value="" style="rounded=1;whiteSpace=wrap;html=1;" parent="HxkZM5L2tCHpHcFzdb74-79" vertex="1">
          <mxGeometry y="12.516556291390728" width="88" height="77.48344370860927" as="geometry" />
        </mxCell>
        <mxCell id="HxkZM5L2tCHpHcFzdb74-81" value="" style="rounded=1;whiteSpace=wrap;html=1;fillColor=none;" parent="HxkZM5L2tCHpHcFzdb74-79" vertex="1">
          <mxGeometry y="0.5960264900662251" width="88" height="89.40397350993376" as="geometry" />
        </mxCell>
        <mxCell id="HxkZM5L2tCHpHcFzdb74-82" value="Information" style="text;html=1;align=center;verticalAlign=middle;resizable=0;points=[];autosize=1;strokeColor=none;fillColor=none;" parent="HxkZM5L2tCHpHcFzdb74-79" vertex="1">
          <mxGeometry x="4.796923076923077" y="-7.727272727272727" width="80" height="30" as="geometry" />
        </mxCell>
        <mxCell id="HxkZM5L2tCHpHcFzdb74-84" value="" style="shape=mxgraph.signs.travel.information_2;html=1;pointerEvents=1;fillColor=#000000;strokeColor=none;verticalLabelPosition=bottom;verticalAlign=top;align=center;" parent="HxkZM5L2tCHpHcFzdb74-79" vertex="1">
          <mxGeometry x="24" y="16.25999999999999" width="40" height="70" as="geometry" />
        </mxCell>
        <mxCell id="HxkZM5L2tCHpHcFzdb74-92" value="" style="group" parent="1" connectable="0" vertex="1">
          <mxGeometry x="661" y="478" width="94.79692307692308" height="90" as="geometry" />
        </mxCell>
        <mxCell id="HxkZM5L2tCHpHcFzdb74-93" value="" style="rounded=1;whiteSpace=wrap;html=1;" parent="HxkZM5L2tCHpHcFzdb74-92" vertex="1">
          <mxGeometry y="12.516556291390728" width="88" height="77.48344370860927" as="geometry" />
        </mxCell>
        <mxCell id="HxkZM5L2tCHpHcFzdb74-94" value="" style="rounded=1;whiteSpace=wrap;html=1;fillColor=none;" parent="HxkZM5L2tCHpHcFzdb74-92" vertex="1">
          <mxGeometry y="0.5960264900662251" width="88" height="89.40397350993376" as="geometry" />
        </mxCell>
        <mxCell id="HxkZM5L2tCHpHcFzdb74-95" value="Evaluator" style="text;html=1;align=center;verticalAlign=middle;resizable=0;points=[];autosize=1;strokeColor=none;fillColor=none;" parent="HxkZM5L2tCHpHcFzdb74-92" vertex="1">
          <mxGeometry x="9.796923076923077" y="-7.727272727272727" width="70" height="30" as="geometry" />
        </mxCell>
        <mxCell id="HxkZM5L2tCHpHcFzdb74-97" value="" style="shape=mxgraph.signs.healthcare.eye;html=1;pointerEvents=1;fillColor=#000000;strokeColor=none;verticalLabelPosition=bottom;verticalAlign=top;align=center;" parent="HxkZM5L2tCHpHcFzdb74-92" vertex="1">
          <mxGeometry x="14.799999999999955" y="36.25999999999999" width="60" height="30" as="geometry" />
        </mxCell>
        <mxCell id="HxkZM5L2tCHpHcFzdb74-105" value="" style="group" parent="1" connectable="0" vertex="1">
          <mxGeometry x="851" y="478" width="111.39999999999998" height="120.26999999999998" as="geometry" />
        </mxCell>
        <mxCell id="HxkZM5L2tCHpHcFzdb74-106" value="" style="rounded=1;whiteSpace=wrap;html=1;" parent="HxkZM5L2tCHpHcFzdb74-105" vertex="1">
          <mxGeometry y="12.516556291390728" width="88" height="77.48344370860927" as="geometry" />
        </mxCell>
        <mxCell id="HxkZM5L2tCHpHcFzdb74-107" value="" style="rounded=1;whiteSpace=wrap;html=1;fillColor=none;" parent="HxkZM5L2tCHpHcFzdb74-105" vertex="1">
          <mxGeometry y="0.5960264900662251" width="88" height="89.40397350993376" as="geometry" />
        </mxCell>
        <mxCell id="HxkZM5L2tCHpHcFzdb74-108" value="Technician" style="text;html=1;align=center;verticalAlign=middle;resizable=0;points=[];autosize=1;strokeColor=none;fillColor=none;" parent="HxkZM5L2tCHpHcFzdb74-105" vertex="1">
          <mxGeometry x="4.796923076923077" y="-7.727272727272727" width="80" height="30" as="geometry" />
        </mxCell>
        <mxCell id="HxkZM5L2tCHpHcFzdb74-110" value="" style="shape=image;html=1;verticalAlign=top;verticalLabelPosition=bottom;labelBackgroundColor=#ffffff;imageAspect=0;aspect=fixed;image=https://cdn2.iconfinder.com/data/icons/seo-web-1-filled-outline/64/customer_service-technical_support-male-128.png" parent="HxkZM5L2tCHpHcFzdb74-105" vertex="1">
          <mxGeometry x="20.52" y="17.52" width="67.48" height="67.48" as="geometry" />
        </mxCell>
      </root>
    </mxGraphModel>
  </diagram>
</mxfile>
